#!OML:ASF Z:\Project 1\Capture day 1\Session 1\Male1.ASF
:FULLY-SPECIFIED
:DEGREES
1087
root 24.1163 16.571 -5.54239 -167.73 32.8498 -180.331
lowerback -1.09412 -2.51445 1.08773
upperback -0.0286489 -3.34849 2.22917
thorax 0.654097 -1.66039 1.61796
lowerneck -14.9689 -2.44316 -2.59513
upperneck 0.410363 -2.64067 1.22137
head 2.81026 -1.18609 0.677204
rclavicle 4.96962e-014 -1.19271e-014
rhumerus 85.1881 -4.27902 -63.045
rradius 28.1497
rwrist 45.5143
rhand -40.9319 41.0691
rfingers 7.12502
rthumb -13.866 11.5513
lclavicle 4.96962e-014 -1.19271e-014
lhumerus 89.1605 4.25396 49.8401
lradius 28.8176
lwrist -38.7329
lhand -42.6612 79.1501
lfingers 7.12502
lthumb -15.5321 251.454
rfemur -21.4376 -6.54726 23.4307
rtibia 19.0453
rfoot -10.1569 -7.78386
rtoes -8.67556
lfemur 9.85707 -3.89229 -12.6532
ltibia 9.06913
lfoot 8.51517 0.271145
ltoes 39.6956
1088
root 24.1162 16.5713 -5.54641 -167.609 32.8815 -180.119
lowerback -1.05239 -2.56228 1.71616
upperback -0.211818 -3.41467 1.9602
thorax 0.391222 -1.69346 0.999949
lowerneck -14.5662 -2.44504 -2.82512
upperneck 0.674071 -2.67023 1.77568
head 2.84322 -1.19223 0.900315
rclavicle -1.68967e-014 4.37326e-015
rhumerus 85.0178 -4.0615 -63.2747
rradius 27.775
rwrist 45.3694
rhand -40.6971 41.2207
rfingers 7.12502
rthumb -13.6397 11.6876
lclavicle -1.68967e-014 4.37326e-015
lhumerus 88.7332 4.62661 49.095
lradius 29.8122
lwrist -37.8138
lhand -43.1978 82.0098
lfingers 7.12502
lthumb -16.0488 248.635
rfemur -21.3786 -6.64759 23.6463
rtibia 18.9333
rfoot -10.2297 -7.79175
rtoes -9.07174
lfemur 9.81288 -3.83336 -12.5081
ltibia 9.18305
lfoot 8.4533 0.197119
ltoes 39.4094
1089
root 24.1239 16.57 -5.54846 -167.551 32.9709 -179.971
lowerback -1.03999 -2.61062 2.01273
upperback -0.28826 -3.47919 1.88832
thorax 0.284129 -1.72599 0.764064
lowerneck -14.3423 -2.35263 -2.63187
upperneck 0.863264 -2.60404 1.79155
head 2.86157 -1.16528 0.876807
rclavicle -4.92986e-014 -1.55052e-014
rhumerus 85.0923 -3.87216 -63.7418
rradius 27.4909
rwrist 45.4022
rhand -40.8555 40.9934
rfingers 7.12502
rthumb -13.7924 11.4707
lclavicle -4.92986e-014 -1.55052e-014
lhumerus 88.4407 5.16438 48.9594
lradius 30.7162
lwrist -36.9519
lhand -43.091 78.0681
lfingers 7.12502
lthumb -15.946 252.568
rfemur -21.3359 -6.68776 23.8099
rtibia 18.9141
rfoot -10.411 -7.7752
rtoes -9.34359
lfemur 9.89139 -3.74081 -12.3882
ltibia 9.09607
lfoot 8.59203 0.434694
ltoes 39.966
1090
root 24.1388 16.5672 -5.54985 -167.582 33.2248 -179.934
lowerback -1.01997 -2.6207 2.09886
upperback -0.325248 -3.49332 1.78843
thorax 0.223636 -1.73435 0.616301
lowerneck -14.3136 -2.15448 -2.63374
upperneck 1.22231 -2.35139 1.64475
head 2.97204 -1.05373 0.846452
rclavicle -1.46703e-013 1.23246e-014
rhumerus 85.1342 -3.67354 -64.2283
rradius 27.3389
rwrist 45.4712
rhand -41.0042 40.8133
rfingers 7.12502
rthumb -13.9357 11.3003
lclavicle -1.46703e-013 1.23246e-014
lhumerus 88.2771 5.66266 49.1478
lradius 31.4823
lwrist -36.265
lhand -43.1439 78.3413
lfingers 7.12502
lthumb -15.9969 252.299
rfemur -21.2868 -6.7204 23.8931
rtibia 18.9576
rfoot -10.6919 -7.61892
rtoes -9.57258
lfemur 10.1309 -3.51613 -12.3789
ltibia 8.87548
lfoot 8.81274 0.838086
ltoes 41.0891
1091
root 24.1489 16.5656 -5.55123 -167.667 33.5115 -180.067
lowerback -1.02109 -2.54305 2.04236
upperback -0.375483 -3.39083 1.64822
thorax 0.168098 -1.68513 0.506988
lowerneck -14.4227 -2.29336 -3.28601
upperneck 1.61863 -2.47738 2.31382
head 3.16121 -1.09959 1.17623
rclavicle 5.66536e-014 5.96354e-015
rhumerus 84.9867 -3.63645 -64.2643
rradius 27.3014
rwrist 45.401
rhand -40.9351 40.8613
rfingers 7.12502
rthumb -13.8691 11.3438
lclavicle 5.66536e-014 5.96354e-015
lhumerus 88.0913 6.01407 48.7431
lradius 32.4981
lwrist -35.0271
lhand -41.8875 80.6901
lfingers 7.12502
lthumb -14.7868 249.857
rfemur -21.3216 -6.56976 23.7558
rtibia 19.0953
rfoot -10.9005 -7.56967
rtoes -9.28728
lfemur 10.4424 -3.2779 -12.5506
ltibia 8.4703
lfoot 8.98034 1.22624
ltoes 42.146
1092
root 24.1575 16.5643 -5.55238 -167.741 33.7367 -180.192
lowerback -1.04514 -2.42288 1.90385
upperback -0.408878 -3.23045 1.60095
thorax 0.153284 -1.60572 0.537011
lowerneck -14.1401 -2.46558 -3.83949
upperneck 1.66913 -2.66116 2.81566
head 3.15476 -1.18003 1.43166
rclavicle -3.06128e-014 -6.08281e-014
rhumerus 84.8613 -3.70579 -64.2863
rradius 27.1259
rwrist 45.36
rhand -40.895 41.0482
rfingers 7.12502
rthumb -13.8305 11.528
lclavicle -3.06128e-014 -6.08281e-014
lhumerus 88.0889 6.17271 48.8178
lradius 33.4249
lwrist -33.9943
lhand -42.9452 82.1787
lfingers 7.12502
lthumb -15.8056 248.447
rfemur -21.3926 -6.35825 23.616
rtibia 19.2907
rfoot -11.1233 -7.64372
rtoes -8.91783
lfemur 10.8143 -3.09779 -12.692
ltibia 7.8953
lfoot 9.17846 1.60696
ltoes 42.8235
1093
root 24.1693 16.5628 -5.55116 -167.812 33.9641 -180.425
lowerback -1.15274 -2.34981 1.59358
upperback -0.440199 -3.13479 1.53058
thorax 0.194665 -1.55883 0.634523
lowerneck -13.9138 -2.39516 -3.71762
upperneck 1.8138 -2.5907 2.52267
head 3.14983 -1.16298 1.31745
rclavicle -6.49032e-014 -2.0276e-014
rhumerus 84.7698 -3.72478 -64.4154
rradius 26.9852
rwrist 45.4116
rhand -40.8363 41.0581
rfingers 7.12502
rthumb -13.7739 11.534
lclavicle -6.49032e-014 -2.0276e-014
lhumerus 88.3647 6.26953 49.9865
lradius 34.1534
lwrist -34.4713
lhand -43.3646 79.39
lfingers 7.12502
lthumb -16.2094 251.268
rfemur -21.5313 -6.27443 23.4243
rtibia 19.4474
rfoot -11.4152 -7.63204
rtoes -9.08111
lfemur 11.0759 -2.92711 -12.9129
ltibia 7.3712
lfoot 9.44217 1.7528
ltoes 42.9897
1094
root 24.1802 16.5655 -5.54823 -167.871 34.1779 -180.825
lowerback -1.35043 -2.31128 1.1451
upperback -0.481862 -3.08547 1.41266
thorax 0.279974 -1.53547 0.756443
lowerneck -13.7078 -2.40855 -3.647
upperneck 1.7806 -2.63173 2.53732
head 3.09911 -1.1846 1.30717
rclavicle -9.20373e-014 -4.77083e-015
rhumerus 84.7282 -3.73478 -64.5862
rradius 26.9263
rwrist 45.4419
rhand -40.8567 41.0875
rfingers 7.12502
rthumb -13.7935 11.5648
lclavicle -9.20373e-014 -4.77083e-015
lhumerus 88.5037 6.40602 50.2212
lradius 34.9741
lwrist -34.0133
lhand -43.5492 78.3588
lfingers 7.12502
lthumb -16.3872 252.313
rfemur -21.7493 -6.03978 23.0287
rtibia 19.5328
rfoot -11.5814 -7.58867
rtoes -8.68823
lfemur 11.0965 -2.77902 -13.2976
ltibia 7.05255
lfoot 9.6586 1.69428
ltoes 43.0133
1095
root 24.1852 16.5696 -5.54703 -167.847 34.3342 -180.938
lowerback -1.45374 -2.25808 0.989523
upperback -0.490877 -3.01529 1.371
thorax 0.334024 -1.5007 0.797292
lowerneck -13.2664 -2.34628 -3.02935
upperneck 1.58535 -2.63062 1.96291
head 2.92109 -1.2049 1.00725
rclavicle 1.95803e-014 -5.1684e-015
rhumerus 84.7236 -3.78588 -64.7934
rradius 26.8676
rwrist 45.5477
rhand -40.9597 41.0643
rfingers 7.12502
rthumb -13.8928 11.5484
lclavicle 1.95803e-014 -5.1684e-015
lhumerus 88.6297 6.52905 50.1486
lradius 35.7344
lwrist -33.2087
lhand -44.0048 78.1434
lfingers 7.12502
lthumb -16.8258 252.566
rfemur -21.8617 -5.99799 22.9362
rtibia 19.5547
rfoot -11.6615 -7.44648
rtoes -7.80474
lfemur 11.1122 -2.6477 -13.4347
ltibia 6.89546
lfoot 9.75812 1.70932
ltoes 43.0278
1096
root 24.1879 16.571 -5.54667 -167.775 34.4419 -180.847
lowerback -1.46857 -2.21407 1.08998
upperback -0.491665 -2.95843 1.31444
thorax 0.333039 -1.47245 0.683937
lowerneck -12.4137 -2.44307 -3.00564
upperneck 1.09666 -2.79267 2.09837
head 2.59987 -1.28377 1.04157
rclavicle -4.85035e-014 2.78299e-015
rhumerus 84.6273 -3.83382 -64.9379
rradius 26.9908
rwrist 45.6406
rhand -41.0055 41.1251
rfingers 7.12502
rthumb -13.9369 11.6122
lclavicle -4.85035e-014 2.78299e-015
lhumerus 88.8379 6.63693 50.2318
lradius 36.4432
lwrist -32.4775
lhand -44.5007 77.0731
lfingers 7.12502
lthumb -17.3031 253.677
rfemur -21.8887 -6.17082 23.0928
rtibia 19.5305
rfoot -11.7184 -7.31094
rtoes -8.76424
lfemur 11.1547 -2.539 -13.3828
ltibia 6.85742
lfoot 9.77012 1.75112
ltoes 42.9298
1097
root 24.1926 16.5733 -5.54506 -167.719 34.5568 -180.807
lowerback -1.46117 -2.17332 1.193
upperback -0.498712 -2.90605 1.20086
thorax 0.310448 -1.44695 0.511959
lowerneck -12.4301 -2.46993 -3.43429
upperneck 1.3146 -2.79778 2.56487
head 2.69805 -1.27564 1.27087
rclavicle 6.51517e-014 -2.5842e-014
rhumerus 84.4449 -3.90828 -64.9308
rradius 27.246
rwrist 45.6124
rhand -41.016 41.3555
rfingers 7.12502
rthumb -13.947 11.8433
lclavicle 6.51517e-014 -2.5842e-014
lhumerus 89.0319 6.78627 50.1561
lradius 37.0417
lwrist -32.1552
lhand -44.8033 76.1478
lfingers 7.12502
lthumb -17.5944 254.628
rfemur -21.8961 -6.03953 23.1184
rtibia 19.4727
rfoot -11.7536 -7.22553
rtoes -6.7529
lfemur 11.1075 -2.43259 -13.3632
ltibia 6.9751
lfoot 9.7116 1.68324
ltoes 42.9265
1098
root 24.1961 16.5726 -5.54234 -167.693 34.7033 -180.793
lowerback -1.44287 -2.11584 1.19216
upperback -0.474502 -2.83008 1.15677
thorax 0.322772 -1.40925 0.468788
lowerneck -12.3736 -2.56148 -3.77036
upperneck 1.35729 -2.88601 2.77819
head 2.71806 -1.31584 1.39622
rclavicle -2.58917e-014 1.07344e-014
rhumerus 84.2125 -3.99536 -64.4422
rradius 27.6083
rwrist 45.1997
rhand -41.0508 41.6474
rfingers 7.12502
rthumb -13.9805 12.1375
lclavicle -2.58917e-014 1.07344e-014
lhumerus 89.2064 7.03088 49.9589
lradius 37.7008
lwrist -31.8098
lhand -45.067 75.476
lfingers 7.12502
lthumb -17.8482 255.323
rfemur -21.8885 -6.00295 23.1378
rtibia 19.4161
rfoot -11.9055 -6.93608
rtoes -3.91547
lfemur 11.0344 -2.30373 -13.36
ltibia 7.16739
lfoot 9.63001 1.62918
ltoes 43.33
1099
root 24.1978 16.5707 -5.53998 -167.609 34.8072 -180.69
lowerback -1.43265 -2.08032 1.19677
upperback -0.432644 -2.78316 1.19803
thorax 0.361745 -1.38543 0.508502
lowerneck -12.3631 -2.54894 -3.80458
upperneck 1.31477 -2.85233 2.58173
head 2.69619 -1.30619 1.33951
rclavicle -2.97183e-014 -4.77083e-015
rhumerus 84.2252 -4.04923 -64.5787
rradius 27.8367
rwrist 45.4515
rhand -41.1611 41.922
rfingers 7.12502
rthumb -14.0869 12.4194
lclavicle -2.97183e-014 -4.77083e-015
lhumerus 89.331 7.34752 49.6492
lradius 38.3609
lwrist -31.5904
lhand -45.0173 75.1998
lfingers 7.12502
lthumb -17.8003 255.595
rfemur -21.9436 -6.33243 23.3275
rtibia 19.428
rfoot -11.9763 -6.65897
rtoes -5.89185
lfemur 10.982 -2.20038 -13.2747
ltibia 7.23958
lfoot 9.62233 1.52998
ltoes 43.3595
1100
root 24.2005 16.5699 -5.53707 -167.502 34.892 -180.592
lowerback -1.42301 -2.05486 1.22503
upperback -0.409732 -2.75004 1.18201
thorax 0.377677 -1.3689 0.476776
lowerneck -11.9388 -2.69764 -4.04177
upperneck 1.10795 -3.04819 2.90992
head 2.56749 -1.39644 1.47979
rclavicle -1.635e-014 -1.55052e-014
rhumerus 84.2761 -4.15689 -64.8967
rradius 27.8532
rwrist 45.6789
rhand -41.2895 42.108
rfingers 7.12502
rthumb -14.2106 12.6141
lclavicle -1.635e-014 -1.55052e-014
lhumerus 89.5395 7.52469 49.389
lradius 38.9219
lwrist -31.5494
lhand -45.1734 74.3391
lfingers 7.12502
lthumb -17.9505 256.469
rfemur -22.0797 -6.86384 23.5645
rtibia 19.4822
rfoot -12.2798 -5.93012
rtoes -4.45153
lfemur 10.9089 -2.11168 -13.1974
ltibia 7.27126
lfoot 9.65693 1.37349
ltoes 42.8364
